,
.   http://www.scenetime.com/signup.php  ---&gt;  Hottest scene tracker on the net !!!  

    Join Now   http://www.scenetime.com/signup.php

    seed back for speed


 



...................................NFO:.................................................








































          
          
              
              
                    
                    
                    
                    

Kill.Katie.Malone.2010.DVDRiP.XviD.AC3-SiC

Poster:
[img]http://img62.imageshack.us/img62/5808/killkatiemalone300.jpg[/img]

IMDB Link:
http://www.imdb.com/title/tt1523485/

Description:
College students and best friends Ginger Matheson, Jim Duncan, and Kyle "Dixie" Canning, pool their cash to buy a "ghost" in an online auction. The three think it's all a goof, but once they open up the antique box to examine their "treasure," they unleash the vengeful spirit of an Irish servant girl who has been wreaking havoc on her owners throughout the generations.  

MediaInfo:
General
Complete name                    : Kill.Katie.Malone.2010.DVDRiP.XviD.AC3-SiC.avi
Format                           : AVI
Format/Info                      : Audio Video Interleave
File size                        : 1.39 GiB
Duration                         : 1h 31mn
Overall bit rate                 : 2 172 Kbps

Video
ID                               : 0
Format                           : MPEG-4 Visual
Format profile                   : Advanced Simple@L5
Format settings, BVOP            : 1
Format settings, QPel            : No
Format settings, GMC             : No warppoints
Format settings, Matrix          : Default (H.263)
Codec ID                         : XVID
Codec ID/Hint                    : XviD
Duration                         : 1h 31mn
Bit rate                         : 1 716 Kbps
Width                            : 720 pixels
Height                           : 368 pixels
Display aspect ratio             : 1.957
Frame rate                       : 23.976 fps
Color space                      : YUV
Chroma subsampling               : 4:2:0
Bit depth                        : 8 bits
Scan type                        : Progressive
Compression mode                 : Lossy
Bits/(Pixel*Frame)               : 0.270
Stream size                      : 1.10 GiB (79%)
Writing library                  : XviD 1.2.1 (UTC 2008-12-04)

Audio
ID                               : 1
Format                           : AC-3
Format/Info                      : Audio Coding 3
Mode extension                   : CM (complete main)
Codec ID                         : 2000
Duration                         : 1h 31mn
Bit rate mode                    : Constant
Bit rate                         : 448 Kbps
Channel(s)                       : 6 channels
Channel positions                : Front: L C R, Side: L R, LFE
Sampling rate                    : 48.0 KHz
Bit depth                        : 16 bits
Compression mode                 : Lossy
Stream size                      : 293 MiB (21%)
Alignment                        : Aligned on interleaves
Interleave, duration             : 64 ms (1.53 video frames)
Interleave, preload duration     : 768 ms
Title                            : VTS_01_1 T80 3_2ch 448Kbps DELAY 0ms

Screenshots:
[img]http://img401.imageshack.us/img401/7662/vlcsnap2011113015h18m48.png[/img]
[img]http://img580.imageshack.us/img580/9979/vlcsnap2011113015h18m56.png[/img]
[img]http://img827.imageshack.us/img827/748/vlcsnap2011113015h19m02.png[/img]
[img]http://img3.imageshack.us/img3/7828/vlcsnap2011113015h19m08.png[/img]
[img]http://img190.imageshack.us/img190/983/vlcsnap2011113015h19m12.png[/img]


Note : Straight rip. minimal filtering.     

Source: Our own

Enjoy!

Respects to T00NG0D, ELEKTRI4KA, PA, YeFsTe, Box, MrRep and everyone in the struggle...